<?xml version="1.0" ?><!DOCTYPE svg  PUBLIC '-//W3C//DTD SVG 1.1//EN'  'http://www.w3.org/Graphics/SVG/1.1/DTD/svg11.dtd'><svg enable-background="new 0 0 512 512" height="512px" id="Layer_1" version="1.1" viewBox="0 0 512 512" width="512px" xml:space="preserve" xmlns="http://www.w3.org/2000/svg" xmlns:xlink="http://www.w3.org/1999/xlink"><g><path d="M147.016,270.781c-27.415,0-49.719,22.304-49.719,49.719s22.304,49.719,49.719,49.719s49.719-22.304,49.719-49.719   S174.431,270.781,147.016,270.781z M147.016,352.219c-17.49,0-31.719-14.229-31.719-31.719s14.229-31.719,31.719-31.719   s31.719,14.229,31.719,31.719S164.506,352.219,147.016,352.219z"/><path d="M256,270.781c-27.415,0-49.719,22.304-49.719,49.719s22.304,49.719,49.719,49.719s49.719-22.304,49.719-49.719   S283.415,270.781,256,270.781z M256,352.219c-17.49,0-31.719-14.229-31.719-31.719S238.51,288.781,256,288.781   s31.719,14.229,31.719,31.719S273.49,352.219,256,352.219z"/><path d="M315.266,320.5c0,27.415,22.304,49.719,49.719,49.719s49.719-22.304,49.719-49.719s-22.304-49.719-49.719-49.719   S315.266,293.085,315.266,320.5z M364.984,288.781c17.49,0,31.719,14.229,31.719,31.719s-14.229,31.719-31.719,31.719   s-31.719-14.229-31.719-31.719S347.494,288.781,364.984,288.781z"/><path d="M470.954,209.334c4.971,0,9-4.029,9-9v-36.5c0-4.971-4.029-9-9-9H338.453l-3.536-13.311   c-1.048-3.944-4.618-6.689-8.698-6.689h-30.798c-4.222-21.994-23.598-38.668-46.804-38.668s-42.582,16.674-46.804,38.668h-30.798   c-4.08,0-7.65,2.745-8.698,6.689l-22.223,83.643H41.046c-2.834,0-5.503,1.335-7.202,3.603c-1.699,2.269-2.231,5.204-1.436,7.924   L82.917,409.36c1.122,3.837,4.641,6.474,8.638,6.474h328.891c3.997,0,7.516-2.637,8.638-6.474l50.509-172.668   c0.796-2.72,0.264-5.655-1.436-7.924c-1.699-2.268-4.368-3.603-7.202-3.603H357.14l-4.206-15.832H470.954z M461.954,172.834v18.5   H348.151l-4.915-18.5H461.954z M248.617,114.166c13.223,0,24.452,8.695,28.271,20.668h-56.543   C224.165,122.861,235.395,114.166,248.617,114.166z M413.701,397.834H98.299L53.056,243.166h93.96h203.203h108.726L413.701,397.834   z M158.719,225.166l19.218-72.332h32.014h77.334h32.014l3.534,13.302l0.002,0.01l9.124,34.339l6.558,24.682H158.719z"/></g></svg>